<svg xmlns="http://www.w3.org/2000/svg" xmlns:xlink="http://www.w3.org/1999/xlink" width="16" height="16" preserveAspectRatio="xMidYMid meet" viewBox="0 0 16 16" style="-ms-transform: rotate(360deg); -webkit-transform: rotate(360deg); transform: rotate(360deg);"><g fill="#626262"><path fill-rule="evenodd" clip-rule="evenodd" d="M3 1h11l1 1v5.3a3.21 3.21 0 0 0-1-.3V2H9v10.88L7.88 14H3l-1-1V2l1-1zm0 12h5V2H3v11zm10.379-4.998a2.53 2.53 0 0 0-1.19.348h-.03a2.51 2.51 0 0 0-.799 3.53L9 14.23l.71.71l2.35-2.36c.325.22.7.358 1.09.4a2.47 2.47 0 0 0 1.14-.13a2.51 2.51 0 0 0 1-.63a2.46 2.46 0 0 0 .58-1a2.63 2.63 0 0 0 .07-1.15a2.53 2.53 0 0 0-1.35-1.81a2.53 2.53 0 0 0-1.211-.258zm.24 3.992a1.5 1.5 0 0 1-.979-.244a1.55 1.55 0 0 1-.56-.68a1.49 1.49 0 0 1-.08-.86a1.49 1.49 0 0 1 1.18-1.18a1.49 1.49 0 0 1 .86.08c.276.117.512.311.68.56a1.5 1.5 0 0 1-1.1 2.324z"/></g><rect x="0" y="0" width="16" height="16" fill="rgba(0, 0, 0, 0)" /></svg>